<?xml version="1.0" standalone="no"?>
<!DOCTYPE svg PUBLIC "-//W3C//DTD SVG 20010904//EN"
 "http://www.w3.org/TR/2001/REC-SVG-20010904/DTD/svg10.dtd">
<svg version="1.0" xmlns="http://www.w3.org/2000/svg"
 width="400.000000pt" height="400.000000pt" viewBox="0 0 400.000000 400.000000"
 preserveAspectRatio="xMidYMid meet">

<g transform="translate(0.000000,400.000000) scale(0.100000,-0.100000)"
fill="#000000" stroke="none">
<path d="M1800 2376 c-6 -9 -16 -52 -22 -97 -10 -84 -4 -459 9 -588 8 -70 10
-75 36 -82 l27 -7 0 68 c0 53 6 80 28 126 26 56 27 66 25 199 -2 254 -53 441
-103 381z"/>
<path d="M2044 2223 c-4 -38 -8 -120 -8 -184 l-1 -117 33 -40 32 -41 0 -121 0
-121 28 3 27 3 5 121 c4 93 9 126 21 140 46 52 52 82 45 214 -3 69 -9 145 -13
170 -6 39 -8 42 -14 20 -4 -14 -8 -65 -8 -115 -2 -175 -26 -107 -32 95 -2 43
-2 43 -9 -15 -4 -33 -8 -90 -9 -127 -1 -37 -5 -70 -11 -73 -6 -4 -10 34 -11
107 -1 162 -14 180 -23 31 -4 -68 -12 -125 -17 -129 -5 -3 -9 47 -9 120 0 136
-14 168 -26 59z"/>
</g>
</svg>
